# File created by Blade
# Date/Time:  Thu Jan 22 19:18:24 2015
#---------------------------------------------------------
:version 1.10
:name HOM
:units
  mass 1.0
  length 1.000000
  angle deg
:documentation
     Acclaim Skeleton File
:root
   axis xyz
   order TX TY TZ RX RY RZ
   position 0.000000 0.000000 0.000000
   orientation 0 0 0
:bonedata
   begin
      id 1
      name RightUpLeg_dum
      direction -1.000000 0.000000 0.000000
      length 4.478084
      axis 0.0 0.0 0.0 xyz
   end
   begin
      id 2
      name LeftUpLeg_dum
      direction 1.000000 0.000000 0.000000
      length 4.478084
      axis 0.0 0.0 0.0 xyz
   end
   begin
      id 3
      name Spine_dum
      direction 0.000000 1.000000 0.000000
      length 6.068208
      axis 0.0 0.0 0.0 xyz
   end
   begin
      id 4
      name RightUpLeg
      direction 0.000000 -1.000000 0.000000
      length 16.405774
      axis 0.0 0.0 0.0 xyz
      dof rx ry rz
   end
   begin
      id 5
      name RightLeg
      direction 0.000000 -1.000000 0.000000
      length 14.644143
      axis 0.0 0.0 0.0 xyz
      dof rx ry rz
   end
   begin
      id 6
      name RightFoot
      direction 0.000000 -0.258819 0.965926
      length 5.806150
      axis 15.0 0.0 0.0 xyz
      dof rx ry rz
   end
   begin
      id 7
      name RightToeBase
      direction 0.000000 0.000000 1.000000
      length 2.952750
      axis 0.0 0.0 0.0 xyz
      dof rx ry rz
   end
   begin
      id 8
      name LeftUpLeg
      direction 0.000000 -1.000000 0.000000
      length 16.405774
      axis 0.0 0.0 0.0 xyz
      dof rx ry rz
   end
   begin
      id 9
      name LeftLeg
      direction 0.000000 -1.000000 0.000000
      length 14.644143
      axis 0.0 0.0 0.0 xyz
      dof rx ry rz
   end
   begin
      id 10
      name LeftFoot
      direction 0.000000 -0.258819 0.965926
      length 5.806150
      axis 15.0 0.0 0.0 xyz
      dof rx ry rz
   end
   begin
      id 11
      name LeftToeBase
      direction 0.000000 0.000000 1.000000
      length 2.952750
      axis 0.0 0.0 0.0 xyz
      dof rx ry rz
   end
   begin
      id 12
      name Spine
      direction 0.000000 1.000000 0.000000
      length 0.000000
      axis 0.0 0.0 0.0 xyz
      dof rx ry rz
   end
   begin
      id 13
      name Spine_dum1
      direction 0.000000 1.000000 0.000000
      length 10.013923
      axis 0.0 0.0 0.0 xyz
   end
   begin
      id 14
      name Spine_dum2
      direction 0.000000 1.000000 0.000000
      length 10.013923
      axis 0.0 0.0 0.0 xyz
   end
   begin
      id 15
      name Spine_dum3
      direction 0.000000 1.000000 0.000000
      length 15.777476
      axis 0.0 0.0 0.0 xyz
   end
   begin
      id 16
      name RightShoulder
      direction -1.000000 0.000000 0.000000
      length 7.190220
      axis 0.0 0.0 90.0 xyz
      dof rx ry rz
   end
   begin
      id 17
      name RightArm
      direction -1.000000 0.000000 0.000000
      length 10.177469
      axis 0.0 0.0 90.0 xyz
      dof rx ry rz
   end
   begin
      id 18
      name RightForeArm
      direction -1.000000 0.000000 0.000000
      length 8.392114
      axis 0.0 0.0 90.0 xyz
      dof ry rz rx
   end
   begin
      id 19
      name RightHand
      direction -1.000000 0.000000 0.000000
      length 0.000000
      axis 0.0 0.0 90.0 xyz
      dof rx ry rz
   end
   begin
      id 20
      name RightHand_dum1
      direction -1.000000 0.000000 0.000000
      length 3.937000
      axis 0.0 0.0 90.0 xyz
   end
   begin
      id 21
      name RightHand_dum2
      direction 0.000000 0.000000 0.000000
      length 0.000000
      axis 0.0 0.0 90.0 xyz
   end
   begin
      id 22
      name RightHandThumb1
      direction 0.000000 0.000000 1.000000
      length 3.937000
      axis 0.0 0.0 90.0 xyz
      dof rx rz ry
   end
   begin
      id 23
      name LeftShoulder
      direction 1.000000 0.000000 0.000000
      length 7.190220
      axis 0.0 0.0 -90.0 xyz
      dof rx ry rz
   end
   begin
      id 24
      name LeftArm
      direction 1.000000 0.000000 0.000000
      length 10.177469
      axis 0.0 0.0 -90.0 xyz
      dof rx ry rz
   end
   begin
      id 25
      name LeftForeArm
      direction 1.000000 0.000000 0.000000
      length 8.392114
      axis 0.0 0.0 -90.0 xyz
      dof ry rz rx
   end
   begin
      id 26
      name LeftHand
      direction 1.000000 0.000000 0.000000
      length 0.000000
      axis 0.0 0.0 -90.0 xyz
      dof rx ry rz
   end
   begin
      id 27
      name LeftHand_dum1
      direction 1.000000 0.000000 0.000000
      length 3.937000
      axis 0.0 0.0 -90.0 xyz
   end
   begin
      id 28
      name LeftHand_dum2
      direction 0.000000 0.000000 0.000000
      length 0.000000
      axis 0.0 0.0 -90.0 xyz
   end
   begin
      id 29
      name LeftHandThumb1
      direction 0.000000 0.000000 1.000000
      length 3.937000
      axis 0.0 0.0 -90.0 xyz
      dof rx rz ry
   end
   begin
      id 30
      name Head
      direction 0.000000 1.000000 0.000000
      length 4.527550
      axis 0.0 0.0 0.0 xyz
      dof rx ry rz
   end
:hierarchy
   begin
      root RightUpLeg_dum LeftUpLeg_dum Spine_dum
      RightUpLeg_dum RightUpLeg
      LeftUpLeg_dum LeftUpLeg
      Spine_dum Spine
      RightUpLeg RightLeg
      RightLeg RightFoot
      RightFoot RightToeBase
      LeftUpLeg LeftLeg
      LeftLeg LeftFoot
      LeftFoot LeftToeBase
      Spine Spine_dum1 Spine_dum2 Spine_dum3
      Spine_dum1 RightShoulder
      Spine_dum2 LeftShoulder
      Spine_dum3 Head
      RightShoulder RightArm
      RightArm RightForeArm
      RightForeArm RightHand
      RightHand RightHand_dum1 RightHand_dum2
      RightHand_dum2 RightHandThumb1
      LeftShoulder LeftArm
      LeftArm LeftForeArm
      LeftForeArm LeftHand
      LeftHand LeftHand_dum1 LeftHand_dum2
      LeftHand_dum2 LeftHandThumb1
   end

# File created by Blade
# Date/Time:  Thu Jan 22 19:18:16 2015
# Frame Rate: 120.000 fps
#------------------------------------------------------
:FULLY-SPECIFIED
:DEGREES
625
root 3.555206 32.115238 -7.527759 81.997503 -20.589180 11.160656
RightUpLeg -93.880880 -24.072503 -14.952415
RightLeg 0.444266 -0.000000 -0.000000
RightFoot 2.798638 -3.587877 14.702098
RightToeBase 6.911473 -0.000000 -0.000000
LeftUpLeg -84.847690 5.314879 -11.711237
LeftLeg -0.136021 -0.000000 0.000000
LeftFoot -1.612174 7.004959 -26.292741
LeftToeBase 8.355581 -0.000000 -0.000000
Spine 39.646810 -8.594940 3.869385
RightShoulder -1.474950 18.711818 -30.524459
RightArm 54.396701 17.933165 49.294703
RightForeArm -30.367046 0.000000 61.484427
RightHand 6.122521 -0.000000 -10.046093
RightHandThumb1 -24.326973 -0.000000 -32.862282
LeftShoulder -3.160862 -52.587845 52.431616
LeftArm 23.658241 -3.756607 -70.725305
LeftForeArm 38.759088 -0.000000 42.507882
LeftHand -6.463604 -0.000000 21.213099
LeftHandThumb1 -26.253704 0.000000 33.147579
Head -47.584391 2.417482 7.172259
626
root 3.528112 32.118268 -7.535607 82.149551 -20.028802 10.950922
RightUpLeg -93.782764 -23.929581 -14.648719
RightLeg 0.417828 -0.000000 -0.000000
RightFoot 2.675591 -3.828529 14.728990
RightToeBase 6.814297 -0.000000 -0.000000
LeftUpLeg -85.054658 5.462716 -11.426740
LeftLeg -0.152698 -0.000000 0.000000
LeftFoot -1.443149 6.825066 -26.144975
LeftToeBase 8.395245 -0.000000 -0.000000
Spine 39.697966 -8.438840 3.763034
RightShoulder -1.515156 18.904058 -30.702057
RightArm 54.565710 17.512970 48.811100
RightForeArm -30.637421 -0.000000 61.268500
RightHand 6.330334 0.000000 -10.551417
RightHandThumb1 -24.326973 -0.000000 -32.862282
LeftShoulder -3.062158 -52.304338 52.276259
LeftArm 23.896150 -3.977961 -70.520662
LeftForeArm 38.764815 -0.000000 41.992651
LeftHand -6.550955 -0.000000 20.850016
LeftHandThumb1 -26.253704 0.000000 33.147579
Head -47.615487 2.472544 7.017125
627
root 3.500805 32.122645 -7.543495 82.329742 -19.487530 10.733431
RightUpLeg -93.746472 -23.773128 -14.341442
RightLeg 0.429437 -0.000000 -0.000000
RightFoot 2.570868 -4.065811 14.710659
RightToeBase 6.813007 -0.000000 -0.000000
LeftUpLeg -85.283970 5.618767 -11.125255
LeftLeg -0.170423 -0.000000 0.000000
LeftFoot -1.295629 6.663035 -26.088184
LeftToeBase 8.461894 -0.000000 -0.000000
Spine 39.725179 -8.291440 3.637777
RightShoulder -1.540194 19.028625 -30.892509
RightArm 54.836753 17.142120 48.417129
RightForeArm -30.925084 -0.000000 61.007195
RightHand 6.473195 -0.000000 -10.993752
RightHandThumb1 -24.326973 -0.000000 -32.862282
LeftShoulder -2.849040 -51.996607 52.003222
LeftArm 24.075943 -4.046874 -70.082244
LeftForeArm 38.647076 -0.000000 41.613571
LeftHand -6.441249 0.000000 21.097180
LeftHandThumb1 -26.253704 0.000000 33.147579
Head -47.613158 2.454975 6.960560
628
root 3.474766 32.127003 -7.548122 82.493668 -18.916106 10.530030
RightUpLeg -93.701776 -23.637708 -13.994723
RightLeg 0.458096 -0.000000 -0.000000
RightFoot 2.452685 -4.251915 14.666275
RightToeBase 6.739958 -0.000000 -0.000000
LeftUpLeg -85.492848 5.753804 -10.774901
LeftLeg -0.194456 -0.000000 0.000000
LeftFoot -1.161173 6.540590 -26.053107
LeftToeBase 8.543428 -0.000000 -0.000000
Spine 39.773679 -8.188637 3.530570
RightShoulder -1.520812 19.190832 -31.088770
RightArm 55.097382 16.831421 48.102330
RightForeArm -31.231598 -0.000000 60.648794
RightHand 6.841586 -0.000000 -11.244690
RightHandThumb1 -24.326973 -0.000000 -32.862282
LeftShoulder -2.608632 -51.701839 51.718993
LeftArm 24.221750 -4.103097 -69.583634
LeftForeArm 38.680358 -0.000000 41.310339
LeftHand -6.670798 -0.000000 20.863839
LeftHandThumb1 -26.253704 0.000000 33.147579
Head -47.636049 2.454242 6.814104
629
root 3.448176 32.131849 -7.552866 82.703658 -18.377667 10.317528
RightUpLeg -93.774579 -23.493685 -13.587554
RightLeg 0.547255 -0.000000 -0.000000
RightFoot 2.327851 -4.405568 14.547710
RightToeBase 6.792837 -0.000000 -0.000000
LeftUpLeg -85.742478 5.898718 -10.422150
LeftLeg -0.208745 -0.000000 0.000000
LeftFoot -1.041110 6.451488 -26.026861
LeftToeBase 8.464706 -0.000000 -0.000000
Spine 39.780041 -8.075412 3.378718
RightShoulder -1.492243 19.353934 -31.280910
RightArm 55.358549 16.536271 47.830163
RightForeArm -31.451715 -0.000000 60.278030
RightHand 7.253579 -0.000000 -11.473853
RightHandThumb1 -24.326973 -0.000000 -32.862282
LeftShoulder -2.508015 -51.308119 51.561600
LeftArm 24.559193 -4.155021 -69.160850
LeftForeArm 38.700783 0.000000 40.814208
LeftHand -6.483563 -0.000000 20.871015
LeftHandThumb1 -26.253704 0.000000 33.147579
Head -47.640354 2.410150 6.766426
630
root 3.416330 32.137465 -7.557649 82.927803 -17.837261 10.075952
RightUpLeg -93.780463 -23.313926 -13.309977
RightLeg 0.590525 -0.000000 -0.000000
RightFoot 2.239391 -4.661321 14.579544
RightToeBase 6.636014 -0.000000 -0.000000
LeftUpLeg -86.015855 6.076143 -10.178846
LeftLeg -0.260463 -0.000000 0.000000
LeftFoot -0.892927 6.334882 -26.119317
LeftToeBase 8.738610 -0.000000 -0.000000
Spine 39.816260 -7.974622 3.182573
RightShoulder -1.415730 19.724199 -31.495327
RightArm 55.482129 16.126327 47.581923
RightForeArm -31.702157 -0.000000 59.943608
RightHand 7.431364 -0.000000 -11.459532
RightHandThumb1 -24.326973 -0.000000 -32.862282
LeftShoulder -2.498471 -50.770395 51.423424
LeftArm 25.087538 -4.100368 -68.626221
LeftForeArm 38.745313 -0.000000 40.283575
LeftHand -6.379651 -0.000000 21.029021
LeftHandThumb1 -26.253704 0.000000 33.147579
Head -47.678302 2.430523 6.801929
